<?xml version="1.0" standalone="no"?>
<!DOCTYPE svg PUBLIC "-//W3C//DTD SVG 20010904//EN"
 "http://www.w3.org/TR/2001/REC-SVG-20010904/DTD/svg10.dtd">
<svg version="1.0" xmlns="http://www.w3.org/2000/svg"
 width="700.000000pt" height="700.000000pt" viewBox="0 0 700.000000 700.000000"
 preserveAspectRatio="xMidYMid meet">
<metadata>
Created by potrace 1.14, written by Peter Selinger 2001-2017
</metadata>
<g transform="translate(0.000000,700.000000) scale(0.100000,-0.100000)"
fill="#000000" stroke="none">
<path d="M5520 6661 c-6 -12 -6 -21 0 -23 9 -3 2 -29 -38 -146 -8 -24 -28 -61
-46 -82 -17 -21 -50 -63 -73 -92 -92 -116 -115 -145 -146 -182 -81 -99 -534
-403 -604 -405 -13 -1 -52 -12 -89 -26 -36 -14 -72 -25 -78 -25 -6 0 -17 22
-23 50 -19 79 -56 132 -266 373 -102 117 -127 141 -180 166 -34 17 -91 35
-127 41 -82 13 -306 13 -379 0 -263 -45 -272 -48 -390 -106 -118 -58 -180 -98
-260 -167 -24 -21 -61 -45 -83 -54 -45 -18 -101 -92 -168 -221 -24 -46 -56
-96 -71 -112 -16 -16 -29 -37 -29 -48 0 -11 -7 -25 -15 -32 -8 -7 -15 -18 -15
-25 0 -9 -11 -10 -43 -4 -23 4 -95 8 -160 9 l-118 0 -97 57 c-159 93 -355 228
-430 298 -72 67 -142 153 -142 175 0 6 -15 44 -34 83 -18 40 -41 108 -50 152
-19 91 -44 128 -71 105 -23 -19 -18 -166 5 -180 13 -9 13 -11 1 -19 -12 -8
-12 -16 2 -53 9 -24 17 -53 17 -63 0 -11 7 -29 15 -39 16 -21 21 -136 6 -136
-5 0 -11 23 -15 51 -5 40 -10 49 -19 40 -18 -18 -20 -147 -3 -256 8 -55 22
-143 30 -195 31 -195 118 -387 235 -516 25 -28 54 -63 64 -78 10 -14 36 -35
58 -47 22 -11 43 -28 46 -37 9 -25 34 -52 49 -52 13 0 46 -19 151 -88 68 -45
107 -52 126 -21 5 9 7 27 3 40 -7 27 -82 79 -139 98 -53 18 -218 178 -325 316
-94 120 -116 159 -132 231 -6 27 -15 53 -20 59 -31 38 -92 466 -69 489 2 3 44
-33 92 -79 49 -47 134 -115 190 -151 56 -37 128 -84 159 -105 31 -22 59 -39
62 -39 3 0 55 -30 115 -66 l109 -65 128 4 c71 2 141 7 156 11 20 6 31 3 47
-13 12 -12 30 -21 41 -21 25 0 25 -5 1 -29 -26 -26 -37 -87 -23 -125 8 -20 8
-33 2 -41 -6 -7 -8 -19 -4 -28 3 -8 1 -18 -5 -22 -19 -11 -12 -25 13 -25 13 0
29 -7 36 -15 16 -19 5 -34 -12 -17 -15 15 -38 16 -38 1 0 -5 4 -7 10 -4 6 3
10 -5 10 -19 0 -14 5 -37 12 -51 16 -37 -18 -138 -44 -129 -15 4 -18 0 -18
-24 0 -34 -18 -60 -117 -164 -40 -43 -73 -85 -73 -93 0 -25 50 -17 120 20 35
19 67 35 71 35 3 0 9 -62 11 -137 3 -76 10 -151 17 -166 6 -16 13 -73 15 -128
3 -80 0 -109 -15 -149 -10 -28 -26 -94 -35 -147 -13 -81 -13 -101 -2 -122 8
-15 9 -26 3 -28 -12 -4 -14 -357 -2 -369 14 -14 7 -59 -17 -109 -47 -99 -55
-131 -61 -246 -6 -99 -4 -121 10 -150 10 -18 19 -51 20 -73 1 -23 7 -81 13
-131 6 -49 14 -278 17 -507 4 -229 10 -432 16 -450 5 -18 9 -58 9 -89 0 -33
10 -88 25 -133 29 -88 33 -177 10 -196 -13 -11 -12 -15 10 -36 29 -27 32 -50
8 -76 -15 -17 -15 -18 5 -18 14 0 22 -6 22 -17 0 -10 7 -31 16 -48 8 -16 22
-59 30 -95 21 -94 24 -100 39 -100 18 0 45 -39 45 -66 0 -12 11 -29 25 -38 14
-9 25 -23 25 -30 0 -7 6 -19 14 -25 7 -6 29 -41 47 -77 19 -37 40 -69 47 -71
6 -3 12 -15 12 -27 1 -19 17 -68 75 -229 14 -38 20 -45 31 -37 24 21 37 81 31
144 -6 58 -50 247 -63 267 -7 12 14 39 31 39 6 0 22 -9 35 -20 13 -11 24 -20
26 -20 2 0 -5 19 -16 43 -10 23 -21 58 -25 77 l-7 35 23 -21 c13 -12 34 -27
46 -33 20 -10 23 -20 23 -69 0 -32 -5 -63 -10 -68 -7 -7 -1 -23 20 -49 16 -21
30 -41 30 -45 0 -4 17 -14 38 -22 28 -11 44 -27 66 -69 49 -92 74 -121 104
-117 41 5 40 44 -1 109 -49 78 -173 345 -190 409 -19 67 -35 115 -55 156 -14
29 -14 34 7 63 12 17 26 31 30 31 12 0 101 -97 102 -112 1 -7 1 -17 0 -21 -2
-12 39 -77 49 -77 4 0 10 -18 14 -40 3 -22 56 -139 117 -260 105 -212 111
-221 137 -218 38 4 40 43 8 115 -20 41 -23 59 -15 69 13 16 -16 161 -38 186
-10 11 -12 22 -5 35 5 10 12 59 15 108 5 93 12 125 28 125 5 0 13 -10 18 -22
5 -13 21 -51 35 -84 32 -76 46 -182 25 -195 -10 -6 -11 -11 -3 -17 6 -4 14
-30 17 -57 6 -52 55 -187 83 -230 19 -29 39 -32 49 -7 4 9 11 136 15 282 7
234 12 281 37 405 21 97 34 140 43 140 20 0 29 -44 38 -191 7 -97 14 -137 27
-158 16 -24 16 -30 4 -53 -11 -20 -14 -73 -14 -220 0 -181 1 -196 19 -209 23
-16 26 -17 44 -5 24 15 36 85 34 196 -3 105 -1 116 33 210 20 55 39 111 42
125 3 14 11 30 17 35 7 6 28 33 47 60 l34 50 3 -180 c1 -119 -3 -226 -14 -315
-22 -189 -23 -245 -2 -266 14 -14 20 -15 32 -4 23 19 35 72 50 232 16 167 51
273 114 342 20 23 44 52 53 66 9 14 19 23 22 20 11 -10 -23 -289 -47 -382 -47
-187 -53 -288 -17 -288 34 0 121 222 106 269 -3 10 -1 31 5 46 6 15 19 105 30
199 11 94 25 184 30 200 6 16 10 37 10 47 0 10 5 30 11 46 l11 28 16 -35 15
-35 9 26 c5 16 5 36 -1 51 -13 34 -60 88 -77 88 -18 0 -20 114 -1 131 9 9 11
78 6 313 -3 165 -9 312 -12 326 -4 14 -11 111 -17 216 -15 274 -81 790 -121
948 -15 58 -24 142 -32 296 l-12 216 -42 38 c-24 21 -43 46 -43 55 0 9 -7 25
-15 35 -8 11 -15 31 -15 44 0 13 -11 37 -25 54 -14 16 -25 36 -25 44 0 8 -11
37 -25 64 -14 27 -25 57 -25 66 0 8 -6 14 -12 12 -35 -12 -5 -118 32 -118 17
0 18 -3 9 -18 -14 -23 13 -92 35 -92 9 0 16 -4 16 -10 0 -5 -5 -10 -11 -10 -7
0 -9 -8 -4 -22 4 -13 7 -32 6 -43 0 -11 5 -23 12 -28 8 -5 5 -7 -8 -5 -10 2
-29 19 -42 38 -56 88 -83 110 -83 68 1 -24 83 -142 93 -132 8 8 47 -6 47 -17
0 -5 -8 -9 -17 -10 -14 0 -14 -2 3 -9 28 -11 52 -81 64 -186 5 -43 12 -87 15
-96 5 -13 2 -18 -9 -18 -20 0 -20 -8 -2 -29 18 -21 32 -121 14 -103 -16 16
-26 15 -30 -3 -2 -11 -12 -4 -32 21 -24 30 -30 50 -37 115 -4 43 -11 84 -16
91 -4 7 -8 29 -9 48 -2 19 -9 62 -16 95 -12 54 -17 60 -41 63 -32 4 -31 12
-12 -142 8 -66 13 -121 11 -123 -1 -2 -29 14 -61 36 -57 39 -58 39 -98 25 -22
-8 -53 -14 -69 -14 -16 0 -46 -9 -68 -20 -22 -11 -47 -20 -57 -20 -10 0 -48
-17 -84 -39 -65 -37 -128 -64 -130 -55 -1 2 -2 7 -4 12 -1 4 -5 15 -10 25 -5
12 1 57 14 115 11 54 21 106 21 117 0 11 10 36 23 55 17 25 24 50 24 88 1 36
6 59 18 72 19 21 14 47 -10 56 -41 16 -94 -90 -81 -160 5 -28 2 -39 -19 -62
-18 -19 -25 -36 -22 -51 2 -13 0 -26 -4 -29 -5 -3 -9 -16 -9 -29 0 -13 -6 -39
-14 -57 -25 -59 -37 -151 -25 -187 14 -40 -5 -72 -60 -100 -23 -12 -43 -32
-50 -50 -17 -40 -43 -62 -83 -70 -58 -12 -70 -67 -43 -196 8 -39 15 -90 15
-115 0 -136 90 -482 141 -541 15 -18 36 -51 45 -73 10 -23 31 -59 46 -80 16
-21 28 -44 28 -51 0 -7 18 -15 40 -18 22 -3 63 -19 90 -37 88 -57 219 -79 264
-45 11 8 29 15 40 15 11 0 39 10 63 21 24 12 47 18 51 14 9 -9 7 -455 -3 -520
-6 -41 -4 -53 9 -65 28 -22 43 5 67 115 28 130 31 319 7 385 -27 75 -30 111
-12 132 10 10 24 18 32 18 30 0 92 44 107 77 16 34 32 42 40 21 2 -7 9 -100
14 -206 8 -145 14 -198 26 -216 15 -22 15 -28 1 -53 -9 -18 -11 -34 -6 -43 8
-12 30 -97 46 -177 2 -13 11 -23 19 -23 20 0 20 77 0 162 -8 35 -19 144 -25
243 -7 124 -15 186 -25 202 -13 19 -13 25 0 50 9 18 15 58 15 108 1 54 5 86
15 99 8 11 15 30 15 42 0 12 10 34 21 48 29 36 39 20 39 -61 0 -35 7 -129 15
-210 8 -82 17 -173 19 -203 17 -181 -6 -502 -46 -652 -11 -42 -18 -84 -15 -92
9 -22 5 -32 -10 -28 -8 2 -13 -7 -13 -20 0 -28 -80 -190 -96 -195 -7 -2 -13
28 -18 84 -19 241 -27 273 -68 273 -14 0 -26 -16 -44 -57 -14 -32 -48 -94 -74
-139 -27 -44 -58 -102 -70 -129 -11 -26 -22 -46 -24 -44 -2 2 -13 85 -25 184
-28 238 -37 281 -63 324 -21 33 -23 45 -19 157 2 83 -1 134 -10 158 -11 31
-11 38 6 56 15 16 17 25 8 38 -5 9 -16 17 -23 17 -29 0 -47 -74 -55 -231 l-7
-131 28 -32 c25 -30 26 -34 11 -42 -15 -9 -48 -98 -51 -139 -1 -8 -7 -33 -14
-55 -41 -129 -60 -229 -66 -345 -8 -149 -16 -201 -27 -175 -4 11 -8 36 -8 56
-1 20 -12 79 -25 130 -13 52 -27 117 -30 144 -9 62 -25 115 -41 135 -7 8 -15
33 -18 56 -8 65 -35 114 -63 114 -13 0 -28 -9 -34 -19 -6 -12 -10 -121 -10
-285 0 -146 -4 -267 -9 -270 -14 -9 -38 26 -62 89 -54 146 -233 463 -262 467
-7 0 -19 1 -27 2 -10 1 -17 18 -22 56 -13 96 -30 322 -32 415 -2 50 -8 144
-14 210 -12 126 -42 529 -41 555 12 288 11 382 -1 416 -7 16 -6 24 1 24 7 0 9
15 5 43 -8 52 -8 39 4 227 5 85 14 178 20 205 6 28 13 102 15 165 4 132 20
254 41 321 7 26 14 53 14 61 0 36 33 48 138 48 55 0 125 5 154 11 62 13 337
116 356 133 12 12 11 40 -14 377 -5 64 -4 89 5 89 6 0 11 7 11 15 0 18 41 37
54 25 4 -5 12 -72 16 -150 6 -110 11 -145 24 -159 11 -12 13 -21 7 -25 -7 -5
-7 -15 0 -33 7 -20 6 -30 -7 -44 -25 -28 -11 -65 35 -88 51 -26 236 -74 259
-67 10 4 98 8 195 9 139 3 182 1 197 -10 28 -20 25 -38 -11 -64 -26 -18 -30
-26 -25 -53 3 -17 10 -83 16 -146 16 -179 50 -381 71 -417 15 -27 16 -33 4
-33 -9 0 -15 -10 -15 -25 0 -14 6 -25 13 -25 27 0 68 -57 74 -101 3 -24 10
-49 15 -55 4 -6 6 -19 2 -28 -3 -9 9 -55 28 -103 38 -95 43 -139 68 -563 6
-102 14 -203 18 -225 9 -48 -8 -695 -18 -695 -9 0 -20 104 -20 190 0 58 -3 70
-22 82 l-22 14 22 22 c23 23 28 43 15 56 -5 4 -8 65 -8 134 -1 140 -13 284
-26 292 -5 3 -4 24 2 45 8 26 9 78 4 150 -8 111 -8 120 -3 165 3 22 -1 25 -37
30 -54 8 -73 20 -51 32 12 7 14 13 7 21 -5 7 -11 25 -13 41 -1 16 -8 31 -15
33 -13 5 -24 -235 -11 -253 4 -6 2 -16 -4 -22 -8 -8 -7 -17 4 -34 11 -17 13
-29 5 -46 -13 -28 -5 -37 21 -23 12 6 31 11 43 11 17 0 20 -4 15 -22 -14 -53
-17 -137 -6 -198 7 -36 11 -94 10 -130 -4 -132 -3 -160 9 -174 8 -9 10 -24 5
-38 -13 -39 -11 -202 3 -216 9 -9 9 -20 3 -38 -8 -20 -6 -32 11 -55 12 -17 15
-29 9 -29 -8 0 -11 -23 -9 -72 2 -40 0 -79 -4 -85 -12 -20 0 -32 26 -25 21 5
22 5 4 -15 -15 -17 -19 -45 -24 -147 -6 -124 -6 -127 18 -153 16 -18 20 -27
12 -30 -9 -3 -13 -26 -13 -68 0 -35 -4 -67 -10 -70 -5 -3 -10 -18 -10 -33 0
-15 -7 -35 -15 -46 -8 -10 -17 -39 -21 -63 -4 -27 -14 -49 -25 -56 -23 -15
-24 -44 -3 -69 16 -16 16 -18 0 -24 -29 -11 -20 -209 11 -221 18 -7 97 35 128
68 45 46 166 343 151 368 -3 5 0 11 8 14 8 3 17 18 20 34 3 15 21 115 41 221
20 105 45 220 56 254 10 34 24 111 29 172 17 185 23 677 12 907 -9 183 -14
223 -33 270 -14 34 -25 89 -30 149 -4 52 -14 129 -22 170 -9 41 -21 114 -28
163 l-11 87 -32 0 c-18 0 -37 -5 -43 -11 -20 -20 -25 28 -19 155 9 155 13 179
33 172 13 -6 13 -3 -1 19 -9 14 -12 25 -6 25 5 0 10 12 10 26 0 16 -4 23 -12
18 -8 -5 -10 14 -5 77 3 46 2 75 -2 65 -11 -28 -18 -10 -26 66 -4 42 -14 76
-25 90 -17 21 -21 22 -51 11 -29 -11 -35 -10 -61 12 -40 34 -73 33 -85 -2 -10
-30 -7 -47 27 -133 12 -30 28 -71 35 -90 7 -19 17 -34 22 -32 20 7 46 -158 73
-483 11 -123 29 -181 63 -197 9 -4 25 -12 35 -17 13 -6 18 -23 20 -70 3 -55 6
-63 27 -71 14 -5 25 -15 25 -21 0 -6 -7 -8 -17 -5 -9 4 -20 1 -25 -6 -11 -17
-10 -80 1 -97 6 -10 5 -23 -2 -35 -6 -12 -14 -107 -18 -226 -10 -280 -27 -571
-34 -578 -7 -7 -8 11 -10 193 -1 99 -6 171 -14 190 -8 20 -9 31 -2 33 14 5 14
92 1 126 -5 14 -12 103 -15 198 -7 171 -34 337 -80 479 -8 26 -15 58 -15 72 0
13 -7 30 -15 37 -19 16 -19 50 0 50 13 0 13 4 -1 33 -9 18 -26 37 -37 43 -27
11 -30 50 -4 46 24 -4 21 10 -7 37 -15 14 -26 19 -31 12 -11 -18 -23 -12 -22
12 0 12 -3 30 -8 40 -6 16 -4 18 16 15 18 -2 25 2 27 19 3 17 -3 22 -23 25
l-27 3 -3 125 c-1 69 -8 138 -14 153 -14 36 -13 92 2 137 11 32 15 35 53 36
22 0 46 4 53 8 7 5 41 12 77 16 53 7 74 16 129 55 64 46 82 76 50 89 -9 3 -15
18 -15 36 0 16 -8 38 -18 48 -16 16 -20 41 -25 148 -8 159 -20 224 -58 292
-24 42 -31 72 -39 150 -5 53 -17 131 -26 172 -9 41 -20 100 -24 130 -10 74
-47 195 -64 209 -16 14 -46 4 -46 -15 0 -16 -9 -18 -30 -4 -12 7 -12 12 4 29
18 20 62 39 142 60 23 6 58 23 79 37 21 14 49 30 63 35 31 12 158 107 211 159
22 22 47 40 54 40 25 0 132 76 182 131 28 30 86 100 128 156 42 56 81 104 87
108 14 8 13 -51 -1 -77 -7 -13 -8 -23 -1 -27 11 -7 3 -121 -9 -121 -5 0 -4
-11 2 -24 13 -28 8 -46 -89 -323 -34 -95 -72 -194 -87 -221 -45 -82 -221 -292
-245 -292 -20 0 -77 -49 -105 -90 -26 -38 -27 -41 -11 -65 17 -27 66 -35 66
-12 0 18 58 71 100 92 90 43 309 369 343 510 8 33 27 92 42 130 49 131 54 154
75 407 12 139 25 271 30 293 13 54 12 142 0 166 -14 25 -56 25 -70 0z m-1611
-475 c10 -9 25 -16 35 -16 26 0 13 -24 -15 -28 -20 -3 -59 -13 -181 -48 -10
-3 -18 -1 -18 5 0 6 12 11 26 11 21 0 25 4 21 19 -3 13 1 21 14 24 18 5 27 27
11 27 -5 0 -17 7 -28 16 -18 14 -14 15 49 11 43 -3 74 -11 86 -21z m172 -170
c36 -29 75 -66 87 -82 117 -152 162 -226 162 -263 0 -11 -14 -33 -31 -50 -22
-22 -29 -38 -27 -58 3 -24 8 -28 38 -31 19 -1 46 -5 59 -8 22 -5 22 -6 6 -18
-16 -12 -16 -14 10 -34 15 -12 31 -22 36 -22 15 0 22 22 9 30 -7 4 -9 13 -6
19 12 20 50 11 86 -19 32 -28 34 -32 23 -61 -7 -18 -9 -40 -4 -52 4 -12 6 -38
4 -58 -5 -41 23 -107 65 -152 20 -21 23 -30 14 -39 -7 -7 -12 -31 -12 -54 0
-25 -6 -47 -15 -54 -24 -20 -261 -43 -465 -45 -142 -1 -198 -6 -242 -19 -44
-13 -62 -15 -78 -6 -14 8 -26 8 -40 0 -30 -16 -37 12 -12 47 26 35 136 359
128 378 -2 7 -31 31 -63 53 -68 47 -135 115 -154 157 -17 36 -61 46 -90 19
-10 -9 -36 -20 -57 -23 -36 -6 -37 -7 -37 -51 0 -25 -4 -56 -9 -69 -6 -16 -4
-26 5 -32 20 -13 29 -11 29 6 0 8 7 15 16 15 9 0 32 10 51 21 36 23 54 19 33
-6 -8 -9 -8 -15 -2 -15 6 0 13 4 17 10 8 14 32 1 38 -20 2 -10 34 -37 71 -60
36 -23 66 -44 66 -46 0 -2 -18 -31 -40 -63 -46 -67 -90 -168 -90 -206 0 -14
-5 -25 -10 -25 -11 0 -126 102 -187 166 -27 27 -33 42 -33 76 0 25 8 57 20 76
11 18 20 37 20 42 0 18 -39 10 -61 -12 -36 -38 -109 -155 -109 -176 0 -27 26
-35 67 -21 42 13 55 9 60 -20 6 -39 87 -154 141 -200 29 -23 52 -50 52 -59 0
-12 -6 -10 -27 9 -16 14 -48 31 -73 38 -25 7 -57 19 -72 27 -44 23 -108 26
-208 10 -52 -9 -146 -16 -208 -16 -146 0 -292 -16 -366 -41 -62 -21 -97 -22
-104 -1 -2 8 7 12 27 12 40 0 49 21 28 64 -17 37 -7 66 23 66 13 0 22 9 26 28
3 15 9 38 14 52 5 14 12 45 16 69 3 24 23 92 44 150 36 102 39 106 69 109 35
4 36 2 19 -45 -10 -28 -10 -36 5 -50 16 -16 17 -16 17 12 0 44 11 75 25 75 6
0 20 9 30 20 10 11 24 20 32 20 7 0 13 9 13 19 0 23 -16 37 -23 19 -2 -7 -8
-10 -12 -6 -22 21 55 67 112 68 12 0 25 5 28 10 3 6 23 10 44 10 25 0 44 7 56
20 19 21 69 27 80 10 4 -7 14 -6 28 2 27 16 583 17 637 2 19 -5 53 -7 75 -4
l40 6 -32 7 c-18 4 -46 10 -63 13 -16 3 -30 11 -30 17 0 7 -21 57 -46 112 -25
55 -53 119 -61 143 -8 24 -26 50 -39 59 -29 18 -33 38 -5 23 30 -15 129 -11
196 10 33 10 65 18 71 19 5 0 39 -23 75 -53z m-1191 -465 c0 -5 -7 -11 -15
-15 -8 -3 -15 -12 -15 -21 0 -8 -4 -15 -10 -15 -5 0 -10 5 -10 12 0 6 -7 20
-17 30 -15 17 -14 18 25 18 23 0 42 -4 42 -9z m-231 -98 c-13 -16 -25 -30 -26
-32 -2 -2 -5 -2 -8 1 -3 3 -1 17 4 32 7 17 18 26 32 26 l22 0 -24 -27z m55
-49 c20 -8 11 -24 -14 -24 -17 0 -18 -4 -10 -25 8 -21 6 -29 -12 -47 l-21 -21
7 48 c12 76 16 82 50 69z m-174 -72 c0 -20 -4 -31 -10 -27 -5 3 -10 25 -10 48
0 31 3 38 10 27 5 -8 10 -30 10 -48z m2055 -458 c14 -22 21 -24 59 -19 43 7
44 6 55 -28 16 -47 29 -218 23 -294 l-4 -63 -178 0 c-98 0 -180 -3 -182 -7 -4
-11 -504 0 -515 10 -4 5 -8 75 -8 156 1 161 12 203 68 245 32 24 66 24 176 3
74 -14 93 -14 150 -2 36 7 109 16 162 20 53 4 102 11 109 15 19 12 67 -8 85
-36z m-1133 15 c60 -16 71 -50 97 -299 5 -47 10 -91 12 -99 3 -10 -9 -17 -36
-24 -65 -15 -368 -13 -530 3 -82 8 -223 15 -312 15 -89 0 -164 3 -166 5 -7 7
-27 155 -27 200 0 36 4 40 68 83 56 38 88 51 191 76 105 26 144 31 260 32 75
1 163 5 196 9 92 11 206 11 247 -1z m-890 -519 c3 -16 1 -30 -3 -30 -14 0 -31
30 -25 45 9 25 23 17 28 -15z m225 -44 c8 -8 -50 -8 -71 0 -9 3 -16 10 -16 14
0 8 77 -4 87 -14z m-222 -90 c15 -11 17 -18 10 -34 -9 -19 -11 -18 -32 14 -23
36 -13 46 22 20z m255 -66 c-12 -8 -13 -13 -2 -30 14 -23 1 -27 -18 -5 -16 19
-6 45 17 45 15 0 16 -2 3 -10z m120 -34 c0 -14 -4 -28 -10 -31 -18 -11 -11
-27 10 -22 26 7 26 -9 0 -23 -11 -6 -19 -14 -18 -18 1 -4 -1 -14 -4 -22 -25
-74 -27 -84 -18 -101 7 -12 7 -20 0 -24 -5 -3 -10 -22 -10 -40 0 -19 -7 -55
-16 -80 -12 -36 -13 -50 -3 -61 9 -11 9 -18 -2 -30 -7 -9 -12 -38 -12 -65 0
-27 -3 -52 -8 -55 -5 -3 -9 -27 -9 -54 0 -27 -5 -52 -10 -55 -7 -4 -6 -13 1
-26 12 -24 2 -149 -13 -149 -6 0 -9 -42 -8 -102 1 -57 -1 -122 -5 -145 -4 -23
-3 -49 3 -59 6 -11 6 -25 1 -36 -5 -10 -13 -26 -18 -37 -6 -10 -6 -34 -1 -56
5 -20 6 -105 3 -189 -7 -195 -6 -211 26 -631 17 -225 20 -285 12 -285 -15 0
-56 352 -67 570 -1 30 -7 114 -12 185 -5 72 -6 139 -2 150 4 11 3 58 -2 105
-5 52 -5 140 1 225 6 77 13 210 16 295 13 316 50 612 96 750 38 118 79 177 79
116z m1740 -88 c0 -19 -18 -43 -25 -36 -4 3 -2 16 5 27 12 24 20 27 20 9z
m-805 -802 c49 -15 161 -83 152 -93 -3 -2 -14 0 -23 5 -12 7 -25 7 -36 1 -14
-8 -22 -2 -43 31 -33 52 -58 53 -85 0 -26 -51 -87 -82 -107 -54 -7 10 -13 25
-13 35 0 9 -7 23 -16 30 -15 12 -22 7 -63 -39 -49 -56 -61 -62 -61 -34 0 9 -8
30 -18 47 l-18 30 80 27 c93 31 177 36 251 14z m378 -28 c8 -28 -4 -47 -14
-22 -11 27 -11 44 0 44 5 0 11 -10 14 -22z m-770 -100 c3 -13 9 -47 13 -77 7
-54 7 -54 -17 -48 -13 4 -30 7 -38 7 -11 0 -11 4 2 18 12 13 15 28 10 55 -9
57 17 97 30 45z m561 -86 c-6 -57 -19 -86 -34 -77 -13 8 -21 102 -10 129 8 23
13 25 31 16 18 -10 20 -17 13 -68z m-14 -134 c0 -13 -5 -30 -10 -38 -7 -11
-10 -5 -10 23 0 20 5 37 10 37 6 0 10 -10 10 -22z m538 -61 c2 -12 -3 -17 -17
-17 -12 0 -21 6 -21 13 0 31 32 34 38 4z m-1058 -19 c0 -25 -3 -29 -10 -18
-13 20 -13 50 0 50 6 0 10 -15 10 -32z m1399 -83 c-1 -16 -5 -41 -9 -55 -6
-18 -8 -5 -9 45 0 49 2 65 9 55 5 -8 9 -28 9 -45z m-339 15 c7 -28 2 -50 -11
-50 -15 0 -40 47 -33 64 9 24 37 15 44 -14z m-1026 -66 c10 -25 7 -79 -3 -68
-14 14 -25 84 -13 84 5 0 13 -7 16 -16z m1370 -544 c-1 -328 -13 -514 -34
-534 -10 -9 -11 87 -6 456 3 257 9 482 13 500 17 76 29 -114 27 -422z m-1294
196 c0 -14 -4 -27 -9 -30 -10 -6 -23 33 -15 46 10 16 24 7 24 -16z m218 -53
c3 -32 -11 -46 -21 -20 -4 9 -7 9 -14 -1 -7 -9 -14 -2 -26 24 l-17 35 37 -3
c35 -3 38 -6 41 -35z m942 -497 c-7 -7 -10 29 -10 115 0 69 3 129 8 133 4 4 8
-47 10 -115 2 -75 -1 -126 -8 -133z m-2169 -37 c13 -26 24 -76 30 -137 6 -53
13 -100 16 -106 4 -5 7 -19 8 -30 2 -21 23 -145 50 -291 7 -44 17 -107 20
-140 l5 -60 -20 50 c-112 285 -137 386 -147 591 -5 120 -2 164 11 164 3 0 15
-18 27 -41z m2192 -77 c4 -53 3 -64 -11 -69 -27 -10 -32 -26 -14 -46 14 -16
17 -41 17 -156 0 -150 -17 -347 -33 -377 -17 -33 -34 -88 -36 -117 -3 -30 -12
-44 -23 -33 -4 3 -2 77 5 164 9 124 17 176 39 239 22 69 25 86 15 107 -7 16
-20 26 -32 26 -16 0 -19 5 -15 23 3 12 16 70 30 128 14 59 25 122 25 141 0 36
9 54 21 41 3 -5 9 -36 12 -71z m-1933 -57 c0 -45 -15 -80 -24 -55 -2 8 -7 44
-10 80 l-6 65 20 -25 c12 -16 20 -40 20 -65z m44 -247 c4 -23 11 -47 17 -54
10 -12 -6 -32 -18 -21 -7 8 -22 78 -23 105 0 37 17 16 24 -30z m-144 -452 c0
-2 3 -11 6 -20 9 -23 -13 -20 -26 4 -9 16 -8 20 5 20 8 0 15 -2 15 -4z"/>
<path d="M4140 5685 c-7 -8 -21 -15 -31 -15 -11 0 -19 -4 -19 -10 0 -16 66
-12 80 5 12 14 6 35 -9 35 -5 0 -14 -7 -21 -15z"/>
<path d="M3724 5600 c-1 -26 2 -29 44 -35 54 -8 81 9 30 20 -18 4 -42 15 -53
25 -20 18 -20 18 -21 -10z"/>
<path d="M3895 5580 c-3 -5 9 -16 26 -25 29 -16 33 -16 48 -1 14 15 14 18 1
26 -20 13 -67 13 -75 0z"/>
<path d="M3172 5569 c2 -6 8 -10 13 -10 5 0 11 4 13 10 2 6 -4 11 -13 11 -9 0
-15 -5 -13 -11z"/>
<path d="M4050 5571 c0 -5 5 -13 10 -16 6 -3 10 -2 10 4 0 5 -4 13 -10 16 -5
3 -10 2 -10 -4z"/>
<path d="M2997 5553 c-11 -11 -8 -53 4 -53 6 0 24 11 40 24 23 19 25 25 13 30
-21 8 -49 8 -57 -1z"/>
<path d="M3107 5554 c-8 -8 1 -24 14 -24 5 0 9 7 9 15 0 15 -12 20 -23 9z"/>
<path d="M2777 5353 c-4 -3 -7 -12 -7 -19 0 -9 5 -10 24 -1 13 7 22 15 20 19
-6 10 -28 10 -37 1z"/>
<path d="M2877 5315 c-8 -18 11 -31 25 -17 11 11 3 32 -12 32 -4 0 -10 -7 -13
-15z"/>
<path d="M2762 5258 c2 -6 10 -14 16 -16 7 -2 10 2 6 12 -7 18 -28 22 -22 4z"/>
<path d="M2850 5261 c0 -11 26 -22 34 -14 3 3 3 10 0 14 -7 12 -34 11 -34 0z"/>
<path d="M2716 5174 c-4 -10 -1 -14 6 -12 15 5 23 28 10 28 -5 0 -13 -7 -16
-16z"/>
<path d="M4470 4628 c0 -9 5 -20 11 -23 17 -11 20 0 4 21 -13 17 -14 17 -15 2z"/>
<path d="M4085 4220 c-8 -12 20 -24 35 -15 6 3 8 11 5 16 -8 12 -32 12 -40 -1z"/>
<path d="M4770 4210 c2 -17 39 -112 40 -99 0 20 -20 81 -31 94 -5 5 -9 7 -9 5z"/>
<path d="M4252 4038 c-7 -7 -12 -16 -12 -20 0 -12 28 -10 36 3 10 17 -10 31
-24 17z"/>
<path d="M4243 3933 c-16 -6 -17 -33 -3 -33 11 0 26 28 19 34 -2 2 -10 1 -16
-1z"/>
<path d="M3190 3905 c0 -8 -5 -15 -11 -15 -6 0 -8 -7 -5 -15 3 -8 9 -22 12
-30 4 -10 -2 -18 -18 -24 -18 -7 -36 -33 -63 -88 -60 -127 -65 -146 -90 -408
-13 -137 -32 -315 -41 -395 -13 -119 -14 -163 -5 -250 6 -58 15 -172 20 -255
6 -82 14 -170 20 -195 100 -424 108 -461 120 -575 7 -55 18 -125 25 -155 8
-30 20 -82 26 -115 19 -96 49 -165 76 -177 55 -25 70 42 34 148 -24 68 -82
348 -105 507 -8 59 -31 154 -49 210 -51 154 -66 231 -66 347 -1 58 -5 139 -11
180 -20 151 -21 230 -5 387 8 87 20 232 26 323 7 91 16 187 21 214 5 27 9 63
9 80 0 17 11 51 25 76 14 25 44 82 66 128 32 67 38 86 29 98 -16 18 -40 18
-40 -1z"/>
<path d="M3990 3835 c7 -9 23 -15 34 -13 33 5 24 23 -13 26 -31 3 -33 2 -21
-13z"/>
<path d="M4842 3725 c0 -16 2 -22 5 -12 2 9 2 23 0 30 -3 6 -5 -1 -5 -18z"/>
<path d="M4856 3633 c-4 -9 -2 -21 4 -27 7 -7 10 -2 10 17 0 31 -5 34 -14 10z"/>
<path d="M4862 3540 c-1 -35 13 -67 22 -52 3 6 0 26 -8 44 -13 30 -14 31 -14
8z"/>
<path d="M3266 3434 c-11 -27 -7 -37 9 -24 16 14 20 40 6 40 -5 0 -12 -7 -15
-16z"/>
<path d="M4490 3410 c0 -17 5 -39 12 -49 9 -15 9 -25 0 -46 -7 -14 -12 -32
-12 -40 0 -20 24 -19 40 0 12 15 6 67 -16 148 -8 28 -24 20 -24 -13z"/>
<path d="M4490 3200 c0 -12 41 -30 53 -23 4 3 3 11 -4 19 -13 16 -49 19 -49 4z"/>
<path d="M4513 3149 c-13 -5 -23 -13 -23 -19 0 -12 38 -4 53 10 14 12 -6 18
-30 9z"/>
<path d="M4570 3131 c0 -11 39 -25 47 -18 3 3 2 10 -2 16 -8 13 -45 15 -45 2z"/>
<path d="M4594 3065 c-3 -14 -4 -31 -1 -39 3 -7 1 -18 -5 -24 -8 -8 -7 -13 6
-18 27 -10 35 7 29 59 -6 51 -19 61 -29 22z"/>
<path d="M4490 3061 c0 -12 35 -20 50 -11 8 5 4 9 -12 13 -31 9 -38 9 -38 -2z"/>
<path d="M4507 2604 c-9 -9 -9 -107 -1 -128 3 -9 16 -16 29 -16 21 0 23 3 18
43 -11 88 -26 121 -46 101z"/>
<path d="M4506 2374 c-3 -9 -1 -23 6 -32 10 -12 10 -16 1 -19 -22 -8 -14 -25
10 -21 19 3 22 9 22 43 0 29 -4 41 -16 43 -9 2 -19 -5 -23 -14z"/>
<path d="M4516 2249 c-13 -19 -13 -24 0 -36 16 -16 10 -33 -12 -33 -18 0 -18
-5 2 -35 12 -18 14 -35 9 -62 -6 -32 -5 -35 8 -24 21 17 37 65 27 82 -5 7 -4
21 2 32 11 21 3 83 -12 92 -5 3 -15 -4 -24 -16z"/>
<path d="M4517 1944 c-9 -10 4 -34 19 -34 8 0 14 9 14 20 0 19 -19 27 -33 14z"/>
<path d="M4516 1833 c-3 -3 -3 -10 0 -14 7 -12 34 -11 34 0 0 11 -26 22 -34
14z"/>
<path d="M4506 1625 c-7 -29 -1 -45 19 -45 17 0 27 27 20 51 -9 27 -32 23 -39
-6z"/>
<path d="M4514 1449 c-3 -6 3 -21 15 -32 l21 -21 0 32 c0 32 -21 45 -36 21z"/>
<path d="M4517 1104 c-10 -11 -9 -52 3 -59 6 -3 13 1 16 10 8 19 -8 60 -19 49z"/>
<path d="M4440 668 c-22 -33 -40 -66 -39 -72 0 -12 5 -6 54 77 45 76 35 73
-15 -5z"/>
</g>
</svg>
