<?xml version="1.0" standalone="no"?>
<!DOCTYPE svg PUBLIC "-//W3C//DTD SVG 20010904//EN"
 "http://www.w3.org/TR/2001/REC-SVG-20010904/DTD/svg10.dtd">
<svg version="1.0" xmlns="http://www.w3.org/2000/svg"
 width="1332.000000pt" height="1332.000000pt" viewBox="0 0 1332.000000 1332.000000"
 preserveAspectRatio="xMidYMid meet">
<metadata>
Created by potrace 1.11, written by Peter Selinger 2001-2013
</metadata>
<g transform="translate(0.000000,1332.000000) scale(0.100000,-0.100000)"
fill="#000000" stroke="none">
<path d="M10170 13310 c-83 -7 -221 -28 -465 -71 -543 -96 -1268 -428 -1802
-825 -710 -528 -1566 -1663 -1943 -2575 -55 -134 -270 -793 -331 -1014 -164
-600 -244 -1154 -270 -1860 -6 -176 -13 -321 -14 -323 -1 -1 -67 -18 -146 -36
-405 -95 -717 -233 -1084 -480 -348 -234 -692 -572 -914 -896 -296 -432 -480
-899 -564 -1430 -29 -187 -32 -700 -4 -885 111 -740 416 -1370 907 -1879 409
-423 859 -706 1418 -892 314 -104 563 -137 1037 -137 347 0 491 14 710 68 273
67 510 156 768 288 771 392 1366 1080 1644 1902 123 363 163 627 163 1080 0
517 -51 811 -210 1211 -304 764 -895 1411 -1623 1775 -238 120 -476 204 -762
270 -289 67 -336 85 -371 142 -16 28 -18 50 -17 172 6 419 73 953 177 1417
159 702 421 1369 764 1938 321 534 765 1047 1173 1356 371 281 908 558 1128
580 109 12 206 -28 487 -202 275 -171 403 -224 494 -209 56 10 117 53 140 101
32 66 42 260 38 755 -4 380 -7 452 -21 503 -38 131 -87 158 -287 162 -74 1
-173 -2 -220 -6z"/>
</g>
</svg>
