<?xml version="1.0" encoding="UTF-8" standalone="no"?>
<svg
   xmlns:dc="http://purl.org/dc/elements/1.1/"
   xmlns:cc="http://creativecommons.org/ns#"
   xmlns:rdf="http://www.w3.org/1999/02/22-rdf-syntax-ns#"
   xmlns:svg="http://www.w3.org/2000/svg"
   xmlns="http://www.w3.org/2000/svg"
   xmlns:sodipodi="http://sodipodi.sourceforge.net/DTD/sodipodi-0.dtd"
   xmlns:inkscape="http://www.inkscape.org/namespaces/inkscape"
   version="1.1"
   x="0px"
   y="0px"
   viewBox="0 0 60.773 100"
   enable-background="new 0 0 60.773 100"
   xml:space="preserve"
   id="svg3085"
   inkscape:version="0.48.4 r9939"
   width="100%"
   height="100%"
   sodipodi:docname="cherry.svg"><metadata
     id="metadata3093"><rdf:RDF><cc:Work
         rdf:about=""><dc:format>image/svg+xml</dc:format><dc:type
           rdf:resource="http://purl.org/dc/dcmitype/StillImage" /><dc:title></dc:title></cc:Work></rdf:RDF></metadata><defs
     id="defs3091" /><sodipodi:namedview
     pagecolor="#ffffff"
     bordercolor="#666666"
     borderopacity="1"
     objecttolerance="10"
     gridtolerance="10"
     guidetolerance="10"
     inkscape:pageopacity="0"
     inkscape:pageshadow="2"
     inkscape:window-width="1280"
     inkscape:window-height="868"
     id="namedview3089"
     showgrid="false"
     inkscape:zoom="1"
     inkscape:cx="38.162764"
     inkscape:cy="-19.782842"
     inkscape:window-x="0"
     inkscape:window-y="25"
     inkscape:window-maximized="1"
     inkscape:current-layer="svg3085" /><path
     d="M59.297,0C37.962,0,20.604,22.317,20.604,49.749v0.414C8.887,52.294,0,62.543,0,74.874C0,88.75,11.25,100,25.126,100  s25.126-11.25,25.126-25.126c0-13.027-9.917-23.739-22.613-25v-0.125c0-19.935,10.175-36.725,23.884-41.411  c2.431-0.832,4.714,2.943,7.57,3.121c0.066,0.01,0.135,0.021,0.204,0.021c0.815,0,1.477-0.661,1.477-1.477V1.477  C60.773,0.66,60.112,0,59.297,0z"
     id="path3087"
     style="fill:#00ff00" /><path
     sodipodi:type="arc"
     style="fill:#ff0000"
     id="path3163"
     sodipodi:cx="26.4"
     sodipodi:cy="44"
     sodipodi:rx="23.4"
     sodipodi:ry="16.799999"
     d="m 49.799999,44 a 23.4,16.799999 0 1 1 -0.0091,-0.467371"
     sodipodi:start="0"
     sodipodi:end="6.255362"
     sodipodi:open="true"
     transform="matrix(1.0797721,0,0,1.5165568,-3.4358638,7.9496532)" /></svg>